<svg id="Layer_1" xmlns="http://www.w3.org/2000/svg" viewBox="0 0 316.4 107.37"><defs><style>.cls-1{fill:#f90;}.cls-1,.cls-2{fill-rule:evenodd;}.cls-2,.cls-3{fill:#fff;}.cls-3{stroke:#fff;stroke-width:2px;}</style></defs><title>Artboard 2</title><path class="cls-1" d="M176.71,88.66c-16.55,12.22-40.54,18.71-61.2,18.71A110.77,110.77,0,0,1,40.74,78.85c-1.55-1.4-.16-3.31,1.7-2.23a150.45,150.45,0,0,0,74.81,19.85A148.85,148.85,0,0,0,174.31,84.8C177.1,83.61,179.45,86.64,176.71,88.66Z"/><path class="cls-1" d="M183.6,80.8c-2.12-2.71-14-1.28-19.33-.64-1.61.19-1.87-1.22-.41-2.24,9.47-6.66,25-4.74,26.8-2.51s-.48,17.81-9.35,25.24c-1.37,1.14-2.67.53-2.06-1C181.24,94.68,185.72,83.51,183.6,80.8Z"/><path class="cls-2" d="M164.65,30.91V24.45a1.59,1.59,0,0,1,1.64-1.64h29a1.63,1.63,0,0,1,1.68,1.64V30c0,.93-.79,2.15-2.18,4.07l-15,21.43c5.57-.13,11.47.71,16.53,3.55a3,3,0,0,1,1.54,2.53v6.89c0,1-1,2.06-2.14,1.48a33.36,33.36,0,0,0-30.61.06c-1,.54-2.07-.55-2.07-1.5V61.93a7.78,7.78,0,0,1,1.08-4.44l17.39-25H166.32A1.61,1.61,0,0,1,164.65,30.91Z"/><path class="cls-2" d="M58.94,71.29H50.13a1.66,1.66,0,0,1-1.58-1.49V24.56a1.66,1.66,0,0,1,1.7-1.63h8.21a1.66,1.66,0,0,1,1.6,1.52v5.91h.17C62.38,24.64,66.41,22,71.84,22s9,2.67,11.44,8.38a13,13,0,0,1,22.38-3.43c2.8,3.81,2.22,9.33,2.22,14.19V69.66a1.66,1.66,0,0,1-1.7,1.63H97.37a1.65,1.65,0,0,1-1.58-1.62v-24c0-1.9.16-6.66-.25-8.47-.66-3.05-2.63-3.91-5.18-3.91A5.84,5.84,0,0,0,85.09,37c-.91,2.28-.82,6.09-.82,8.66v24a1.67,1.67,0,0,1-1.7,1.63H73.76a1.64,1.64,0,0,1-1.58-1.62v-24c0-5,.82-12.47-5.43-12.47s-6.09,7.23-6.09,12.47v24A1.66,1.66,0,0,1,58.94,71.29Z"/><path class="cls-2" d="M237.14,71.29h-8.78a1.65,1.65,0,0,1-1.58-1.62l0-45.27a1.68,1.68,0,0,1,1.7-1.47h8.17a1.68,1.68,0,0,1,1.57,1.27v6.92h.17c2.47-6.19,5.92-9.14,12-9.14a11.57,11.57,0,0,1,10.29,5.33C263,30.92,263,37,263,41.4V69.87a1.67,1.67,0,0,1-1.69,1.42h-8.84a1.67,1.67,0,0,1-1.57-1.42V45.3c0-4.95.58-12.19-5.51-12.19a5.77,5.77,0,0,0-5.1,3.62,20,20,0,0,0-1.4,8.57V69.66A1.69,1.69,0,0,1,237.14,71.29Z"/><path class="cls-2" d="M141.55,49.68c0,3.44.08,6.3-1.65,9.36a7.15,7.15,0,0,1-6.11,4c-3.38,0-5.36-2.57-5.36-6.39,0-7.51,6.74-8.87,13.12-8.87Zm8.88,21.5a1.81,1.81,0,0,1-2.08.2,21.34,21.34,0,0,1-5-5.87c-4.84,4.93-8.27,6.41-14.54,6.41-7.42,0-13.19-4.58-13.19-13.74A15,15,0,0,1,125,43.77c4.78-2.1,11.46-2.48,16.58-3.06V39.57c0-2.1.16-4.58-1.08-6.39a5.86,5.86,0,0,0-4.94-2.29c-3.37,0-6.36,1.72-7.09,5.29a1.86,1.86,0,0,1-1.53,1.62l-8.55-.92A1.56,1.56,0,0,1,117.05,35c2-10.36,11.32-13.5,19.71-13.5,4.29,0,9.9,1.15,13.28,4.39,4.29,4,3.88,9.36,3.88,15.18V54.83c0,4.13,1.71,6,3.33,8.17a1.67,1.67,0,0,1,0,2.34c-1.8,1.51-5,4.29-6.76,5.86Z"/><path class="cls-2" d="M26,49.68c0,3.44.08,6.3-1.65,9.36a7.15,7.15,0,0,1-6.1,4c-3.39,0-5.36-2.57-5.36-6.39,0-7.51,6.73-8.87,13.11-8.87Zm8.89,21.5a1.83,1.83,0,0,1-2.09.2,21.34,21.34,0,0,1-5.05-5.87c-4.84,4.93-8.27,6.41-14.53,6.41C5.77,71.92,0,67.34,0,58.18A15,15,0,0,1,9.4,43.77c4.78-2.1,11.47-2.48,16.58-3.06V39.57c0-2.1.16-4.58-1.07-6.39A5.89,5.89,0,0,0,20,30.89c-3.36,0-6.35,1.72-7.09,5.29a1.86,1.86,0,0,1-1.53,1.62L2.8,36.88A1.56,1.56,0,0,1,1.48,35c2-10.36,11.32-13.5,19.71-13.5,4.29,0,9.9,1.15,13.28,4.39,4.29,4,3.88,9.36,3.88,15.18V54.83c0,4.13,1.71,6,3.33,8.17a1.66,1.66,0,0,1,0,2.34c-1.8,1.51-5,4.29-6.76,5.86Z"/><path class="cls-3" d="M218.14,8.42a7.37,7.37,0,0,1-.54,2.82,7.58,7.58,0,0,1-1.43,2.3,6.75,6.75,0,0,1-2.09,1.58,5.79,5.79,0,0,1-2.6.58,5.61,5.61,0,0,1-2.57-.63,6.5,6.5,0,0,1-2-1.53,7.46,7.46,0,0,1-1.38-2.3A7.56,7.56,0,0,1,205,8.42a8,8,0,0,1,.52-2.91,7.48,7.48,0,0,1,1.38-2.35,6.93,6.93,0,0,1,2-1.53A5.86,5.86,0,0,1,211.46,1a5.75,5.75,0,0,1,2.62.59,6.72,6.72,0,0,1,2.09,1.57,7.59,7.59,0,0,1,1.43,2.35A7.84,7.84,0,0,1,218.14,8.42Z"/><rect class="cls-3" x="206.36" y="22.47" width="10.24" height="48.2" rx="1.77" ry="1.77"/><path class="cls-3" d="M290.74,21.62a25.28,25.28,0,0,1,5.83.64,20.09,20.09,0,0,1,5,1.85H315.4v4.32a2.39,2.39,0,0,1-.56,1.7,3.44,3.44,0,0,1-1.93.84l-4.32.8a15.08,15.08,0,0,1,.73,2.58,15.63,15.63,0,0,1,.26,2.87,14.29,14.29,0,0,1-1.44,6.46,14.56,14.56,0,0,1-3.94,4.91,18.41,18.41,0,0,1-6,3.12,24.35,24.35,0,0,1-7.49,1.11,27.32,27.32,0,0,1-5.31-.52c-1.5.91-2.25,1.94-2.25,3.07a2.27,2.27,0,0,0,1.34,2.16,11,11,0,0,0,3.52,1,38.78,38.78,0,0,0,5,.28c1.84,0,3.74.08,5.68.24a43.64,43.64,0,0,1,5.68.82,16.57,16.57,0,0,1,5,1.86,9.91,9.91,0,0,1,3.52,3.47,10.6,10.6,0,0,1,1.34,5.63A13.26,13.26,0,0,1,312.61,77a16.7,16.7,0,0,1-4.56,5.37,23.84,23.84,0,0,1-7.3,3.8,31.21,31.21,0,0,1-9.87,1.44,38.14,38.14,0,0,1-9.53-1.06,22.48,22.48,0,0,1-6.7-2.82,12.34,12.34,0,0,1-4-4.06,9.53,9.53,0,0,1-1.31-4.8,8.17,8.17,0,0,1,2.06-5.68,14.14,14.14,0,0,1,5.73-3.66,8,8,0,0,1-2.86-2.63,7.69,7.69,0,0,1-1.08-4.28,7.18,7.18,0,0,1,.37-2.23,9.05,9.05,0,0,1,1.15-2.28A11.71,11.71,0,0,1,276.69,52a14,14,0,0,1,2.78-1.81,15,15,0,0,1-5.76-5.26,14.07,14.07,0,0,1-2.09-7.7,14.1,14.1,0,0,1,5.43-11.39,18,18,0,0,1,6.06-3.13A25.72,25.72,0,0,1,290.74,21.62Zm12.73,51.07a3.33,3.33,0,0,0-.84-2.35,5.53,5.53,0,0,0-2.31-1.41,16.35,16.35,0,0,0-3.4-.75,33.93,33.93,0,0,0-4.14-.24h-4.51a19.41,19.41,0,0,1-4.48-.51A10.52,10.52,0,0,0,280.62,70a5.28,5.28,0,0,0-1.2,3.41,4.67,4.67,0,0,0,.63,2.37,5.42,5.42,0,0,0,2,1.91,12.17,12.17,0,0,0,3.6,1.24,27.52,27.52,0,0,0,5.4.45,26.71,26.71,0,0,0,5.59-.51,13,13,0,0,0,3.87-1.39,5.88,5.88,0,0,0,2.24-2.11A5.21,5.21,0,0,0,303.47,72.69Zm-12.73-27.3a11,11,0,0,0,3.76-.58,7.61,7.61,0,0,0,2.65-1.62,6.63,6.63,0,0,0,1.6-2.49,9.15,9.15,0,0,0,.54-3.2,7.53,7.53,0,0,0-2.14-5.66q-2.13-2.09-6.41-2.09t-6.41,2.09a7.53,7.53,0,0,0-2.14,5.66,9,9,0,0,0,.54,3.15,6.79,6.79,0,0,0,1.6,2.51A7.2,7.2,0,0,0,287,44.81,10.94,10.94,0,0,0,290.74,45.39Z"/></svg>