<?xml version="1.0" encoding="utf-8"?>
<!-- Generator: Adobe Illustrator 22.1.0, SVG Export Plug-In . SVG Version: 6.00 Build 0)  -->
<svg version="1.1" id="Layer_1" xmlns="http://www.w3.org/2000/svg" xmlns:xlink="http://www.w3.org/1999/xlink" x="0px" y="0px"
	 viewBox="0 0 320 112.7" style="enable-background:new 0 0 320 112.7;" xml:space="preserve">
<style type="text/css">
	.st0{fill-rule:evenodd;clip-rule:evenodd;fill:#FF9900;}
	.st1{fill-rule:evenodd;clip-rule:evenodd;}
</style>
<g>
	<path class="st0" d="M178,90.1c-16.5,12.2-40.5,18.7-61.2,18.7c-29,0-55-10.7-74.8-28.5c-1.5-1.4-0.2-3.3,1.7-2.2
		C65,90.4,91.3,97.9,118.5,97.9c18.3,0,38.5-3.8,57.1-11.7C178.4,85,180.7,88.1,178,90.1z"/>
	<path class="st0" d="M184.9,82.2c-2.1-2.7-14-1.3-19.3-0.6c-1.6,0.2-1.9-1.2-0.4-2.2c9.5-6.7,25-4.7,26.8-2.5
		c1.8,2.2-0.5,17.8-9.4,25.2c-1.4,1.1-2.7,0.5-2.1-1C182.5,96.1,187,84.9,184.9,82.2z"/>
</g>
<path class="st1" d="M165.9,32.3v-6.5c0-1,0.7-1.6,1.6-1.6l29,0c0.9,0,1.7,0.7,1.7,1.6l0,5.5c0,0.9-0.8,2.1-2.2,4.1l-15,21.4
	c5.6-0.1,11.5,0.7,16.5,3.5c1.1,0.6,1.4,1.6,1.5,2.5v6.9c0,1-1,2.1-2.1,1.5c-8.9-4.7-20.8-5.2-30.6,0.1c-1,0.5-2.1-0.5-2.1-1.5v-6.6
	c0-1,0-2.8,1.1-4.4L182.7,34l-15.1,0C166.7,34,165.9,33.3,165.9,32.3z"/>
<path class="st1" d="M60.2,72.7h-8.8c-0.8-0.1-1.5-0.7-1.6-1.5l0-45.2c0-0.9,0.8-1.6,1.7-1.6l8.2,0c0.9,0,1.5,0.7,1.6,1.5v5.9h0.2
	c2.1-5.7,6.2-8.4,11.6-8.4c5.5,0,9,2.7,11.4,8.4c2.1-5.7,7-8.4,12.2-8.4c3.7,0,7.7,1.5,10.2,5c2.8,3.8,2.2,9.3,2.2,14.2l0,28.6
	c0,0.9-0.8,1.6-1.7,1.6h-8.8C97.7,72.7,97,72,97,71.1l0-24c0-1.9,0.2-6.7-0.2-8.5c-0.7-3-2.6-3.9-5.2-3.9c-2.1,0-4.4,1.4-5.3,3.7
	c-0.9,2.3-0.8,6.1-0.8,8.7v24c0,0.9-0.8,1.6-1.7,1.6H75c-0.9-0.1-1.6-0.8-1.6-1.6l0-24c0-5,0.8-12.5-5.4-12.5
	c-6.3,0-6.1,7.2-6.1,12.5l0,24C61.9,72,61.1,72.7,60.2,72.7z"/>
<path class="st1" d="M238.6,72.7h-8.8c-0.9-0.1-1.6-0.8-1.6-1.6l0-45.3c0.1-0.8,0.8-1.5,1.7-1.5l8.2,0c0.8,0,1.4,0.6,1.6,1.3v6.9
	h0.2c2.5-6.2,5.9-9.1,12-9.1c3.9,0,7.8,1.4,10.3,5.3c2.3,3.6,2.3,9.7,2.3,14.1v28.5c-0.1,0.8-0.8,1.4-1.7,1.4h-8.8
	c-0.8-0.1-1.5-0.7-1.6-1.4V46.7c0-5,0.6-12.2-5.5-12.2c-2.1,0-4.1,1.4-5.1,3.6c-1.2,2.8-1.4,5.5-1.4,8.6v24.4
	C240.3,72,239.5,72.7,238.6,72.7z"/>
<path class="st1" d="M142.8,51.1c0,3.4,0.1,6.3-1.6,9.4c-1.4,2.5-3.6,4-6.1,4c-3.4,0-5.4-2.6-5.4-6.4c0-7.5,6.7-8.9,13.1-8.9V51.1z
	 M151.7,72.6c-0.6,0.5-1.4,0.6-2.1,0.2c-2.9-2.4-3.5-3.6-5.1-5.9c-4.8,4.9-8.3,6.4-14.5,6.4c-7.4,0-13.2-4.6-13.2-13.7
	c0-7.2,3.9-12,9.4-14.4c4.8-2.1,11.5-2.5,16.6-3.1V41c0-2.1,0.2-4.6-1.1-6.4c-1.1-1.6-3.1-2.3-4.9-2.3c-3.4,0-6.4,1.7-7.1,5.3
	c-0.2,0.8-0.7,1.6-1.5,1.6l-8.5-0.9c-0.7-0.2-1.5-0.7-1.3-1.8c2-10.4,11.3-13.5,19.7-13.5c4.3,0,9.9,1.1,13.3,4.4
	c4.3,4,3.9,9.4,3.9,15.2v13.7c0,4.1,1.7,5.9,3.3,8.2c0.6,0.8,0.7,1.8,0,2.3C156.7,68.3,153.5,71,151.7,72.6L151.7,72.6z"/>
<path class="st1" d="M27.2,51.1c0,3.4,0.1,6.3-1.6,9.4c-1.4,2.5-3.6,4-6.1,4c-3.4,0-5.4-2.6-5.4-6.4c0-7.5,6.7-8.9,13.1-8.9V51.1z
	 M36.1,72.6c-0.6,0.5-1.4,0.6-2.1,0.2c-2.9-2.4-3.5-3.6-5.1-5.9c-4.8,4.9-8.3,6.4-14.5,6.4C7,73.3,1.3,68.8,1.3,59.6
	c0-7.2,3.9-12,9.4-14.4c4.8-2.1,11.5-2.5,16.6-3.1V41c0-2.1,0.2-4.6-1.1-6.4c-1.1-1.6-3.1-2.3-4.9-2.3c-3.4,0-6.4,1.7-7.1,5.3
	c-0.2,0.8-0.7,1.6-1.5,1.6l-8.5-0.9c-0.7-0.2-1.5-0.7-1.3-1.8C4.7,26.1,14.1,23,22.5,23c4.3,0,9.9,1.1,13.3,4.4
	c4.3,4,3.9,9.4,3.9,15.2v13.7c0,4.1,1.7,5.9,3.3,8.2c0.6,0.8,0.7,1.8,0,2.3C41.1,68.3,37.9,71,36.1,72.6L36.1,72.6z"/>
<path d="M220.4,9.7c0,1-0.2,2-0.6,2.9c-0.4,0.9-1,1.7-1.6,2.3c-0.7,0.7-1.5,1.2-2.4,1.6c-0.9,0.4-1.9,0.6-3,0.6c-1,0-2-0.2-2.9-0.6
	c-0.9-0.4-1.7-0.9-2.4-1.6c-0.7-0.7-1.2-1.4-1.6-2.3c-0.4-0.9-0.6-1.8-0.6-2.9c0-1.1,0.2-2,0.6-3c0.4-0.9,0.9-1.7,1.6-2.4
	c0.7-0.7,1.5-1.2,2.4-1.6s1.9-0.6,2.9-0.6c1.1,0,2,0.2,3,0.6s1.7,0.9,2.4,1.6c0.7,0.7,1.2,1.5,1.6,2.4
	C220.2,7.6,220.4,8.6,220.4,9.7z M218.6,25.2v46.6c0,0.7-0.5,1.2-1.2,1.2H208c-0.7,0-1.2-0.5-1.2-1.2V25.2c0-0.7,0.5-1.2,1.2-1.2
	h9.4C218.1,24,218.6,24.5,218.6,25.2z"/>
<path d="M293.2,23.1c2.1,0,4.1,0.2,5.9,0.6s3.5,1.1,5.1,1.9h14.1V30c0,0.7-0.2,1.3-0.6,1.7c-0.4,0.4-1,0.7-2,0.9l-4.4,0.8
	c0.3,0.8,0.6,1.7,0.7,2.6c0.2,0.9,0.3,1.9,0.3,2.9c0,2.4-0.5,4.6-1.5,6.6c-1,2-2.3,3.6-4,5c-1.7,1.4-3.7,2.4-6.1,3.2
	c-2.3,0.7-4.9,1.1-7.6,1.1c-1.8,0-3.6-0.2-5.4-0.5c-1.5,0.9-2.3,2-2.3,3.1c0,1,0.5,1.7,1.4,2.2c0.9,0.5,2.1,0.8,3.6,1
	c1.5,0.2,3.2,0.3,5,0.3c1.9,0,3.8,0.1,5.8,0.2c2,0.2,3.9,0.4,5.8,0.8c1.9,0.4,3.6,1,5,1.9c1.5,0.9,2.7,2,3.6,3.5
	c0.9,1.5,1.4,3.4,1.4,5.7c0,2.2-0.5,4.3-1.6,6.3c-1.1,2-2.6,3.9-4.6,5.5c-2,1.6-4.5,2.9-7.4,3.9c-2.9,1-6.3,1.5-10,1.5
	c-3.7,0-7-0.4-9.7-1.1s-5-1.7-6.8-2.9c-1.8-1.2-3.1-2.6-4-4.1c-0.9-1.6-1.3-3.2-1.3-4.9c0-2.3,0.7-4.2,2.1-5.8
	c1.4-1.6,3.3-2.8,5.8-3.7c-1.2-0.7-2.2-1.6-2.9-2.7c-0.7-1.1-1.1-2.6-1.1-4.3c0-0.7,0.1-1.5,0.4-2.3c0.3-0.8,0.6-1.6,1.2-2.3
	s1.2-1.5,2-2.2c0.8-0.7,1.7-1.3,2.8-1.8c-2.5-1.3-4.4-3.1-5.9-5.4c-1.4-2.2-2.1-4.8-2.1-7.8c0-2.4,0.5-4.6,1.5-6.6
	c1-2,2.3-3.6,4.1-5c1.7-1.4,3.8-2.4,6.2-3.2C287.8,23.5,290.4,23.1,293.2,23.1z M306.1,75.1c0-1-0.3-1.8-0.9-2.4
	c-0.6-0.6-1.4-1.1-2.3-1.4s-2.1-0.6-3.5-0.8c-1.3-0.2-2.7-0.2-4.2-0.2c-1.5,0-3,0-4.6,0s-3.1-0.2-4.6-0.5c-1.3,0.7-2.4,1.6-3.2,2.6
	c-0.8,1-1.2,2.2-1.2,3.5c0,0.9,0.2,1.7,0.6,2.4c0.4,0.7,1.1,1.4,2.1,1.9c0.9,0.5,2.2,1,3.7,1.3c1.5,0.3,3.3,0.5,5.5,0.5
	c2.2,0,4.1-0.2,5.7-0.5c1.6-0.3,2.9-0.8,3.9-1.4c1-0.6,1.8-1.3,2.3-2.1C305.9,77,306.1,76,306.1,75.1z M293.2,47.3
	c1.5,0,2.7-0.2,3.8-0.6c1.1-0.4,2-0.9,2.7-1.6c0.7-0.7,1.3-1.5,1.6-2.5c0.4-1,0.5-2.1,0.5-3.3c0-2.4-0.7-4.3-2.2-5.8
	c-1.5-1.4-3.6-2.1-6.5-2.1s-5.1,0.7-6.5,2.1c-1.5,1.4-2.2,3.3-2.2,5.8c0,1.1,0.2,2.2,0.5,3.2c0.4,1,0.9,1.8,1.6,2.6
	c0.7,0.7,1.6,1.3,2.7,1.7C290.5,47.1,291.7,47.3,293.2,47.3z"/>
</svg>
